<?xml version="1.0" standalone="no"?>
<!DOCTYPE svg PUBLIC "-//W3C//DTD SVG 20010904//EN"
 "http://www.w3.org/TR/2001/REC-SVG-20010904/DTD/svg10.dtd">
<svg version="1.0" xmlns="http://www.w3.org/2000/svg"
 width="500.000000pt" height="500.000000pt" viewBox="0 0 500.000000 500.000000"
 preserveAspectRatio="xMidYMid meet">

<g transform="translate(0.000000,500.000000) scale(0.100000,-0.100000)"
fill="#000000" stroke="none">
<path d="M2240 4294 c-389 -72 -607 -180 -850 -424 -174 -173 -294 -362 -365
-575 -17 -49 -35 -85 -49 -94 -48 -32 -127 -123 -155 -179 -115 -227 -22 -515
250 -780 44 -42 91 -97 106 -122 33 -56 141 -195 182 -234 17 -17 31 -34 31
-39 0 -12 -57 -96 -88 -130 -21 -22 -23 -30 -13 -40 20 -19 128 -12 208 15 68
23 72 23 95 7 41 -30 214 -116 299 -148 598 -228 1292 -65 1706 402 139 156
256 367 316 572 44 150 59 257 62 448 4 227 8 246 53 297 40 44 42 45 242 69
163 20 305 117 390 264 24 41 90 219 90 242 0 2 -24 -7 -54 -21 -94 -43 -184
-56 -396 -58 -178 -2 -199 -4 -245 -24 l-51 -23 -45 43 c-58 56 -130 83 -288
108 -172 28 -209 42 -307 117 -192 146 -367 228 -609 284 -71 16 -133 21 -290
24 -110 2 -211 2 -225 -1z m495 -119 c196 -45 366 -120 521 -231 127 -90 131
-95 136 -173 10 -133 106 -273 241 -350 67 -38 81 -60 72 -109 -25 -133 -196
-304 -383 -383 -72 -29 -199 -59 -257 -59 l-35 0 0 274 0 273 70 5 c75 6 95
14 69 28 -8 5 -43 29 -77 54 l-62 46 -1 160 c-1 88 -3 165 -4 170 -1 6 -3 24
-4 40 l-1 30 -180 0 -179 0 -3 -60 -3 -60 -127 100 c-70 55 -130 100 -133 100
-3 0 -109 -80 -236 -177 -408 -314 -514 -394 -529 -403 -25 -14 -2 -24 65 -28
l65 -4 0 -54 c0 -30 -3 -54 -7 -54 -5 0 -26 5 -48 10 -141 35 -346 29 -494
-13 l-83 -24 7 25 c12 50 84 188 146 280 78 118 232 279 337 355 165 119 365
204 567 242 106 19 448 14 550 -10z m-93 -461 c134 -103 253 -196 266 -207 22
-20 22 -22 22 -330 l0 -310 -60 6 c-105 11 -246 67 -518 203 -155 78 -309 147
-377 170 l-115 39 0 105 0 106 122 94 c236 184 403 310 410 310 4 0 117 -84
250 -186z m286 27 c3 -133 9 -130 -103 -44 -74 57 -75 59 -75 104 0 25 3 49 7
53 4 4 43 5 88 4 l80 -3 3 -114z m589 68 c15 -6 84 -21 152 -34 188 -37 221
-58 247 -160 l7 -29 -37 37 c-48 48 -98 73 -177 87 -128 23 -229 68 -229 100
0 12 2 12 37 -1z m1067 -119 c-6 -6 -44 -23 -85 -37 -64 -23 -97 -28 -234 -33
-167 -7 -201 -15 -268 -62 l-32 -23 22 35 c12 19 43 49 69 65 l47 30 211 6
c116 3 222 11 236 17 33 14 47 15 34 2z m-764 -419 c-16 -66 -96 -203 -158
-272 -59 -65 -186 -154 -283 -198 -217 -98 -450 -114 -671 -45 -87 27 -285
112 -378 163 -209 114 -470 201 -660 221 -267 28 -529 -40 -662 -172 -35 -35
-70 -97 -62 -109 2 -4 30 -15 62 -24 101 -30 112 -36 60 -30 -26 2 -77 15
-115 27 -83 28 -87 41 -45 131 55 118 165 196 347 249 67 19 104 23 225 23
260 0 418 -49 845 -260 160 -79 319 -153 355 -164 256 -82 511 -65 745 52 202
100 371 293 392 447 4 32 9 45 11 31 2 -13 -1 -44 -8 -70z m46 -453 c-13 -149
-59 -323 -124 -468 -73 -163 -265 -404 -406 -511 -125 -95 -322 -188 -516
-245 -118 -34 -378 -52 -529 -36 -170 17 -432 103 -578 188 l-43 26 67 63 c66
62 69 64 108 57 22 -4 135 -7 250 -6 181 0 222 4 302 23 l91 22 69 -47 c123
-85 235 -124 354 -124 108 0 258 57 267 101 2 12 -8 18 -40 23 -23 4 -60 15
-83 25 -40 18 -135 96 -135 110 0 5 26 18 58 30 77 30 291 161 377 232 187
153 358 353 461 536 26 46 49 83 51 83 3 0 2 -37 -1 -82z m-2930 -92 c59 -21
163 -35 334 -46 163 -10 241 -28 303 -72 18 -12 80 -67 138 -123 156 -147 313
-233 522 -287 71 -19 86 -26 101 -51 9 -17 15 -31 13 -34 -9 -8 -191 19 -283
42 -234 61 -443 201 -615 412 -45 54 -66 73 -85 73 -33 0 -31 -25 7 -86 110
-172 290 -302 538 -388 111 -39 309 -76 402 -76 50 0 57 -3 77 -30 12 -16 22
-33 22 -39 0 -5 -52 -17 -116 -26 -140 -21 -434 -16 -551 10 -116 25 -251 73
-347 123 -243 125 -459 373 -510 585 -7 31 -3 32 50 13z m928 -32 c30 -30 13
-74 -29 -74 -12 0 -26 5 -33 12 -13 13 -16 60 -5 71 12 13 51 7 67 -9z m431
-253 c22 -10 55 -35 73 -55 31 -36 107 -178 157 -294 l25 -57 -54 57 c-29 32
-75 97 -102 145 -60 107 -114 180 -151 204 -24 16 -25 19 -8 19 11 0 38 -9 60
-19z m989 -82 c-33 -37 -205 -146 -304 -193 -135 -63 -133 -63 -155 -19 -11
21 -21 40 -22 43 -2 3 29 11 69 19 129 23 335 102 403 155 28 22 31 20 9 -5z
m-1859 -360 c12 -19 -5 -23 -22 -6 -16 16 -16 17 -1 17 9 0 20 -5 23 -11z"/>
<path d="M2260 3475 l0 -55 55 0 55 0 0 55 0 55 -55 0 -55 0 0 -55z"/>
<path d="M2410 3475 l0 -55 55 0 55 0 0 55 0 55 -55 0 -55 0 0 -55z"/>
<path d="M2260 3325 l0 -55 55 0 55 0 0 55 0 55 -55 0 -55 0 0 -55z"/>
<path d="M2417 3373 c-4 -3 -7 -28 -7 -55 l0 -48 55 0 55 0 0 55 0 55 -48 0
c-27 0 -52 -3 -55 -7z"/>
<path d="M990 2647 c0 -14 18 -61 41 -106 46 -93 172 -234 274 -306 93 -66
280 -155 355 -169 21 -4 3 7 -45 27 -245 103 -398 223 -514 402 -25 39 -53 93
-63 120 -18 54 -48 74 -48 32z"/>
<path d="M1150 2630 c0 -57 99 -215 184 -293 143 -131 350 -236 534 -271 84
-16 270 -32 262 -23 -3 3 -50 13 -105 22 -332 57 -677 278 -805 516 -25 48
-45 69 -66 69 -2 0 -4 -9 -4 -20z"/>
<path d="M2020 1160 l0 -180 40 0 40 0 0 180 0 180 -40 0 -40 0 0 -180z"/>
<path d="M2170 1125 l0 -145 40 0 40 0 0 74 c0 76 12 125 33 138 21 13 46 9
67 -12 17 -17 20 -33 20 -110 l0 -90 39 0 39 0 4 96 c2 81 6 98 22 110 27 19
52 18 76 -6 17 -17 20 -33 20 -110 l0 -90 40 0 40 0 0 105 c0 116 -10 149 -51
171 -50 25 -136 9 -153 -28 -5 -11 -7 -11 -12 0 -17 37 -113 55 -150 27 -25
-19 -34 -19 -34 0 0 11 -11 15 -40 15 l-40 0 0 -145z"/>
<path d="M2773 1250 c-48 -29 -67 -65 -67 -125 0 -88 57 -145 144 -145 118 0
187 115 132 220 -35 66 -141 92 -209 50z m115 -66 c17 -12 22 -25 22 -59 0
-46 -24 -75 -61 -75 -23 0 -59 47 -59 75 0 28 36 75 59 75 9 0 27 -7 39 -16z"/>
<path d="M1260 745 l0 -165 35 0 34 0 3 58 3 57 60 6 c76 9 105 38 105 105 0
77 -46 104 -176 104 l-64 0 0 -165z m160 75 c18 -34 -4 -62 -48 -58 -35 3 -37
5 -40 41 l-3 37 40 0 c30 0 43 -5 51 -20z"/>
<path d="M1572 810 c-61 -60 -50 -180 20 -216 35 -18 79 -18 104 1 25 19 34
19 34 0 0 -10 11 -15 35 -15 l35 0 0 130 0 130 -35 0 c-24 0 -35 -5 -35 -15 0
-8 -4 -15 -9 -15 -5 0 -14 7 -21 15 -8 9 -29 15 -55 15 -35 0 -49 -6 -73 -30z
m133 -55 c29 -28 31 -51 10 -82 -21 -30 -51 -34 -80 -11 -34 27 -34 70 1 97
34 27 40 26 69 -4z"/>
<path d="M1870 710 l0 -130 35 0 35 0 0 80 c0 67 3 83 20 100 23 23 33 24 61
10 17 -9 19 -22 19 -100 l0 -90 40 0 40 0 0 101 c0 98 -1 101 -29 130 -34 33
-75 38 -121 14 -27 -14 -30 -14 -30 0 0 11 -10 15 -35 15 l-35 0 0 -130z"/>
<path d="M2234 830 c-53 -21 -85 -101 -65 -163 18 -54 53 -80 113 -84 63 -5
94 9 125 56 42 62 18 155 -47 188 -28 14 -95 16 -126 3z m96 -70 c40 -40 17
-112 -35 -112 -34 0 -55 25 -55 64 0 30 31 68 55 68 8 0 24 -9 35 -20z"/>
<path d="M2480 710 l0 -130 35 0 35 0 0 68 c0 77 17 112 56 112 21 0 24 4 24
40 0 46 -13 51 -54 19 l-26 -20 0 20 c0 17 -6 21 -35 21 l-35 0 0 -130z"/>
<path d="M2700 812 c-77 -78 -33 -232 67 -232 21 0 49 7 61 16 20 14 22 14 22
0 0 -12 10 -16 40 -16 l40 0 0 130 0 130 -40 0 c-30 0 -40 -4 -40 -16 0 -14
-2 -14 -22 0 -37 26 -95 20 -128 -12z m140 -57 c6 -8 10 -31 8 -52 -2 -28 -9
-41 -27 -49 -49 -25 -92 21 -77 80 10 42 68 54 96 21z"/>
<path d="M2990 710 l0 -130 40 0 39 0 3 87 c3 82 5 88 28 100 20 10 29 10 45
-1 17 -11 20 -26 23 -100 l3 -86 39 0 39 0 3 87 c3 82 5 88 28 100 20 10 29
10 45 -1 17 -11 20 -26 23 -100 l3 -86 39 0 40 0 0 88 c0 110 -18 153 -71 166
-42 10 -81 3 -103 -20 -15 -14 -18 -14 -42 5 -32 25 -90 28 -122 5 -20 -14
-22 -14 -22 0 0 12 -10 16 -40 16 l-40 0 0 -130z"/>
<path d="M3512 810 c-61 -60 -50 -180 20 -216 35 -18 79 -18 104 1 25 19 34
19 34 0 0 -10 11 -15 35 -15 l35 0 0 130 0 130 -35 0 c-24 0 -35 -5 -35 -15 0
-8 -4 -15 -9 -15 -5 0 -14 7 -21 15 -8 9 -29 15 -55 15 -35 0 -49 -6 -73 -30z
m133 -55 c29 -28 31 -51 10 -82 -21 -30 -51 -34 -80 -11 -34 27 -34 70 1 97
34 27 40 26 69 -4z"/>
</g>
</svg>
